<?xml version="1.0" encoding="UTF-8" standalone="no"?>
<!-- Created with Inkscape (http://www.inkscape.org/) -->

<svg
   width="148.64127mm"
   height="29.850334mm"
   viewBox="0 0 148.64127 29.850334"
   version="1.1"
   id="svg1"
   xmlns:inkscape="http://www.inkscape.org/namespaces/inkscape"
   xmlns:sodipodi="http://sodipodi.sourceforge.net/DTD/sodipodi-0.dtd"
   xmlns="http://www.w3.org/2000/svg"
   xmlns:svg="http://www.w3.org/2000/svg">
  <sodipodi:namedview
     id="namedview1"
     pagecolor="#505050"
     bordercolor="#eeeeee"
     borderopacity="1"
     inkscape:showpageshadow="0"
     inkscape:pageopacity="0"
     inkscape:pagecheckerboard="0"
     inkscape:deskcolor="#505050"
     inkscape:document-units="mm" />
  <defs
     id="defs1" />
  <g
     inkscape:label="Capa 1"
     inkscape:groupmode="layer"
     id="layer1"
     transform="translate(-41.010415,-112.0895)">
    <g
       id="g35"
       inkscape:label="Salir"
       style="display:inline;stroke-width:0.996014"
       transform="matrix(0.2653252,0,0,0.26595927,22.382186,-126.33919)">
      <path
         id="path18"
         style="display:inline;opacity:1;fill:#fbffff;fill-opacity:1;stroke:#000000;stroke-width:3.22004;stroke-linecap:round;stroke-linejoin:round;stroke-dasharray:none;stroke-opacity:1"
         d="m 258.23121,906.21652 -63.86002,45.98532 63.86002,46.78953 h 184.17863 l 63.85827,-46.78953 -63.85827,-45.98532 z m -20.53485,-8.12706 c 0,0 -55.63468,45.07669 -89.16923,54.51535 33.53455,9.4387 89.16923,54.51369 89.16923,54.51369 l -63.86001,-54.51369 z m -89.16923,54.51535 c -24.61324,-6.92765 -76.709112,0 -76.709112,0 0,0 52.095872,6.92769 76.709112,0 z m 314.41754,-54.51535 63.85827,54.51535 -63.85827,54.51369 c 0,0 55.63468,-45.07499 89.16923,-54.51369 -33.53455,-9.43866 -89.16923,-54.51535 -89.16923,-54.51535 z m 89.16923,54.51535 c 24.61324,6.92769 76.70912,0 76.70912,0 0,0 -52.09588,-6.92765 -76.70912,0 z"
         sodipodi:nodetypes="ccccccccccccccccccccccc"
         inkscape:label="Selector" />
      <text
         xml:space="preserve"
         style="font-style:normal;font-variant:normal;font-weight:normal;font-stretch:normal;font-size:64px;line-height:1.5ex;font-family:'Colonna MT';-inkscape-font-specification:'Colonna MT';font-variant-ligatures:normal;font-variant-caps:normal;font-variant-numeric:normal;font-variant-east-asian:normal;text-align:center;text-anchor:middle;display:inline;fill:#020202;fill-opacity:1;stroke:#000000;stroke-width:3.22011;stroke-linecap:butt;stroke-linejoin:miter;stroke-opacity:1"
         x="349.41428"
         y="971.32275"
         id="text35"
         inkscape:label="Opcion"><tspan
           sodipodi:role="line"
           id="tspan35"
           x="349.41428"
           y="971.32275"
           style="stroke-width:3.22011">Salir</tspan></text>
    </g>
  </g>
</svg>
