<?xml version="1.0" encoding="UTF-8" standalone="no"?>
<!-- Created with Inkscape (http://www.inkscape.org/) -->

<svg
   width="560.23578"
   height="112.24929"
   viewBox="0 0 560.23578 112.24929"
   version="1.1"
   id="svg1"
   xml:space="preserve"
   xmlns="http://www.w3.org/2000/svg"
   xmlns:svg="http://www.w3.org/2000/svg"><defs
     id="defs1" /><g
     id="g50"
     style="display:inline"
     transform="translate(-857.17574,89.562652)"><g
       id="g24"
       style="display:inline"><path
         id="path19-8"
         style="display:inline;fill:#404040;fill-opacity:1;stroke:#000000;stroke-width:3.23292;stroke-linecap:round;stroke-linejoin:round;stroke-dasharray:none;stroke-opacity:1"
         d="m 1045.2043,-79.825433 -63.86002,45.98535 63.86002,46.7895 h 184.1787 l 63.8582,-46.7895 -63.8582,-45.98535 z m -20.5348,-8.12707 c 0,0 -55.63472,45.0767 -89.16928,54.51537 33.53456,9.43867 89.16928,54.51362 89.16928,54.51362 l -63.86002,-54.51362 z m -89.16928,54.51537 c -24.61324,-6.92767 -76.70911,0 -76.70911,0 0,0 52.09587,6.92768 76.70911,0 z m 314.41758,-54.51537 63.8583,54.51537 -63.8583,54.51362 c 0,0 55.6347,-45.07495 89.1692,-54.51362 -33.5345,-9.43867 -89.1692,-54.51537 -89.1692,-54.51537 z m 89.1692,54.51537 c 24.6133,6.92768 76.7091,0 76.7091,0 0,0 -52.0958,-6.92767 -76.7091,0 z" /><path
         d="m 867.91156,55.071866 -63.86002,45.985354 63.86002,46.7895 h 184.17874 l 63.8582,-46.7895 -63.8582,-45.985354 z"
         style="display:inline;fill:#808080;fill-opacity:1;stroke:#000000;stroke-width:3.233;stroke-linecap:round;stroke-linejoin:round;stroke-dasharray:none;stroke-opacity:1"
         id="path1"
         transform="translate(177.2936,-134.8973)" /><text
         xml:space="preserve"
         style="font-style:normal;font-variant:normal;font-weight:normal;font-stretch:normal;font-size:85.3333px;line-height:1.5ex;font-family:'Colonna MT';-inkscape-font-specification:'Colonna MT, Normal';font-variant-ligatures:normal;font-variant-caps:normal;font-variant-numeric:normal;font-variant-east-asian:normal;text-align:center;text-anchor:middle;display:none;opacity:1;fill:#ffffff;fill-opacity:1;stroke:none;stroke-width:3.233;stroke-linecap:round;stroke-linejoin:round;stroke-dasharray:none;stroke-opacity:1"
         x="1137.3145"
         y="-18.708847"
         id="text24"><tspan
           id="tspan24"
           x="0"
           y="0"
           style="font-size:85.3333px;fill:#ffffff;fill-opacity:1">xx:xx</tspan></text></g></g></svg>
