<?xml version="1.0" encoding="UTF-8" standalone="no"?>
<!-- Created with Inkscape (http://www.inkscape.org/) -->

<svg
   width="321.12137mm"
   height="29.445839mm"
   viewBox="0 0 321.12137 29.445839"
   version="1.1"
   id="svg1"
   xmlns:inkscape="http://www.inkscape.org/namespaces/inkscape"
   xmlns:sodipodi="http://sodipodi.sourceforge.net/DTD/sodipodi-0.dtd"
   xmlns="http://www.w3.org/2000/svg"
   xmlns:svg="http://www.w3.org/2000/svg">
  <sodipodi:namedview
     id="namedview1"
     pagecolor="#505050"
     bordercolor="#eeeeee"
     borderopacity="1"
     inkscape:showpageshadow="0"
     inkscape:pageopacity="0"
     inkscape:pagecheckerboard="0"
     inkscape:deskcolor="#505050"
     inkscape:document-units="mm" />
  <defs
     id="defs1" />
  <g
     inkscape:label="Capa 1"
     inkscape:groupmode="layer"
     id="layer1"
     transform="translate(42.73142,-83.359006)">
    <g
       id="g22"
       inkscape:label="Botones"
       style="display:inline;stroke-width:0.996014"
       transform="matrix(0.57320281,0,0,0.26235539,-82.975446,-41.865063)">
      <g
         id="g37"
         inkscape:label="Jugar"
         style="display:inline;stroke-width:0.996014">
        <path
           id="path19"
           style="display:inline;opacity:1;fill:#fbffff;fill-opacity:1;stroke:#000000;stroke-width:3.22004;stroke-linecap:round;stroke-linejoin:round;stroke-dasharray:none;stroke-opacity:1"
           d="m 258.23121,487.0378 -63.86002,45.98535 63.86002,46.7895 h 184.17863 l 63.85827,-46.7895 -63.85827,-45.98535 z m -20.53485,-8.12707 c 0,0 -55.63468,45.0767 -89.16923,54.51537 33.53455,9.43867 89.16923,54.51362 89.16923,54.51362 L 173.83635,533.4261 Z m -89.16923,54.51537 c -24.61324,-6.92767 -76.709112,0 -76.709112,0 0,0 52.095872,6.92768 76.709112,0 z m 314.41754,-54.51537 63.85827,54.51537 -63.85827,54.51362 c 0,0 55.63468,-45.07495 89.16923,-54.51362 -33.53455,-9.43867 -89.16923,-54.51537 -89.16923,-54.51537 z m 89.16923,54.51537 c 24.61324,6.92768 76.70912,0 76.70912,0 0,0 -52.09588,-6.92767 -76.70912,0 z"
           sodipodi:nodetypes="ccccccccccccccccccccccc"
           inkscape:label="Selector" />
      </g>
    </g>
  </g>
</svg>
